<?xml version="1.0"?>
<svg width="640" height="480" xmlns="http://www.w3.org/2000/svg" xmlns:svg="http://www.w3.org/2000/svg">
 <!-- Created with SVG-edit - https://github.com/SVG-Edit/svgedit-->
 <g class="layer">
  <title>Layer 1</title>
  <path d="m92.757161,411.772962l0,-370.499996l0,0c0,-15.740129 17.125131,-28.5 38.249998,-28.5l458.99998,0c21.124909,0 38.249998,12.759871 38.249998,28.5c0,15.740098 -17.12509,28.5 -38.249998,28.5l-38.249998,0l0,370.499996c0,15.740129 -17.12511,28.5 -38.249998,28.5l-458.99998,0l0,0c-21.124909,0 -38.249998,-12.759871 -38.249998,-28.5c0,-15.740129 17.12509,-28.5 38.249998,-28.5l38.249998,0zm76.499997,-398.999996l0,0c21.124868,0 38.249998,12.759871 38.249998,28.5c0,15.740098 -17.125131,28.5 -38.249998,28.5c-10.562424,0 -19.124999,-6.379958 -19.124999,-14.25c0,-7.870057 8.562576,-14.25 19.124999,-14.25l38.249998,0m382.499984,28.5l-420.749982,0m-76.499997,341.999997l0,0c10.562424,0 19.124999,6.379958 19.124999,14.25c0,7.870041 -8.562576,14.25 -19.124999,14.25l38.249998,0m-38.249998,28.5l0,0c21.124868,0 38.249998,-12.759871 38.249998,-28.5l0,-28.5" fill="#7f7f7f" id="svg_36" stroke="#000000" stroke-dasharray="null" stroke-linecap="null" stroke-linejoin="null" stroke-width="5"/>
  <path d="m399.042268,175.410476c0,0 12.789624,-48.067993 0,-64.350855c-12.804688,-16.282861 -17.911499,-27.128973 -46.066749,-34.893802s-17.896435,-6.217342 -38.368872,-5.423056c-20.472437,0.780591 -37.540333,10.846111 -37.540333,16.269167c0,0 -12.789624,0.780591 -17.896435,5.43675c-5.121875,4.656159 -13.648291,26.348381 -13.648291,31.785132s4.263208,41.878041 8.526416,49.629176l-5.076682,1.547488c-4.263208,44.959322 17.052832,50.396073 17.052832,50.396073c7.667749,41.878041 15.350561,24.047691 15.350561,34.893802s-7.682813,6.984238 -7.682813,6.984238s-6.809081,17.049758 -23.861913,23.253405c-17.052832,6.189952 -111.717138,39.522572 -119.415015,46.50681c-7.697877,6.997933 -6.824146,39.549961 -6.824146,39.549961l405.938744,0c0,0 0.888796,-32.552028 -6.809081,-39.549961c-7.712942,-6.997933 -102.377248,-40.316858 -119.43008,-46.50681c-17.052832,-6.203647 -23.861913,-23.253405 -23.861913,-23.253405s-7.682813,3.861873 -7.682813,-6.984238s7.682813,6.984238 15.365626,-34.893802c0,0 21.300975,-5.43675 17.052832,-50.396073l-5.121875,0z" fill="#bfbfbf" id="svg_29" stroke="#000000" stroke-dasharray="null" stroke-linecap="null" stroke-linejoin="null" stroke-width="5"/>
  <text fill="#ffffff" font-family="serif" font-size="94" id="svg_4" stroke="#000000" stroke-dasharray="null" stroke-linecap="null" stroke-linejoin="null" stroke-width="0" text-anchor="middle" transform="rotate(0.868154 321.228 110.577) matrix(1 0 0 0.542945 -0.499012 172.757)" x="321.736286" xml:space="preserve" y="-82.701431">M</text>
  <path d="m101.499999,417.900795l26.737809,0l8.262189,-25.400807l8.262194,25.400807l26.737805,0l-21.631302,15.698382l8.262616,25.400807l-21.631312,-15.69881l-21.631307,15.69881l8.262619,-25.400807l-21.63131,-15.698382z" fill="#bfbfbf" id="svg_15" stroke="#000000" stroke-dasharray="null" stroke-linecap="null" stroke-linejoin="null" stroke-width="5"/>
  <path d="m482.499995,81.900811l26.737809,0l8.262189,-25.400807l8.262194,25.400807l26.737805,0l-21.631302,15.698382l8.262616,25.400807l-21.631312,-15.69881l-21.631307,15.69881l8.262619,-25.400807l-21.63131,-15.698382z" fill="#bfbfbf" id="svg_17" stroke="#000000" stroke-dasharray="null" stroke-linecap="null" stroke-linejoin="null" stroke-width="5"/>
  <path d="m482.50001,417.900795l26.737809,0l8.262189,-25.400807l8.262194,25.400807l26.737805,0l-21.631302,15.698382l8.262616,25.400807l-21.631312,-15.69881l-21.631307,15.69881l8.262619,-25.400807l-21.63131,-15.698382z" fill="#bfbfbf" id="svg_18" stroke="#000000" stroke-dasharray="null" stroke-linecap="null" stroke-linejoin="null" stroke-width="5"/>
  <path d="m101.500002,81.900807l26.737809,0l8.262189,-25.400807l8.262194,25.400807l26.737805,0l-21.631302,15.698382l8.262616,25.400807l-21.631312,-15.69881l-21.631307,15.69881l8.262619,-25.400807l-21.63131,-15.698382z" fill="#bfbfbf" id="svg_19" stroke="#000000" stroke-dasharray="null" stroke-linecap="null" stroke-linejoin="null" stroke-width="5"/>
  <text fill="#ffffff" font-family="serif" font-size="94" id="svg_33" stroke="#000000" stroke-dasharray="null" stroke-linecap="null" stroke-linejoin="null" stroke-width="0" text-anchor="middle" transform="rotate(0.868154 325.608 252.003) matrix(1 0 0 0.542945 349.873 340.176)" x="-24.263714" xml:space="preserve" y="-130.588383">T</text>
  <text fill="#ffffff" font-family="serif" font-size="94" id="svg_34" stroke="#000000" stroke-dasharray="null" stroke-linecap="null" stroke-linejoin="null" stroke-width="0" text-anchor="middle" transform="rotate(0.868154 325.608 175.999) matrix(1 0 0 0.542945 349.873 340.176)" x="-24.263714" xml:space="preserve" y="-270.565737">A</text>
  <text fill="#ffffff" font-family="serif" font-size="94" id="svg_35" stroke="#000000" stroke-dasharray="null" stroke-linecap="null" stroke-linejoin="null" stroke-width="0" text-anchor="middle" transform="rotate(0.868154 327.608 324.002) matrix(1 0 0 0.542945 349.873 340.176)" x="-22.263714" xml:space="preserve" y="2.021742">C</text>
  <path d="m290.600005,417.900795l26.737809,0l8.262189,-25.400807l8.262194,25.400807l26.737805,0l-21.631302,15.698382l8.262616,25.400807l-21.631312,-15.69881l-21.631307,15.69881l8.262619,-25.400807l-21.63131,-15.698382z" fill="#bfbfbf" id="svg_45" stroke="#000000" stroke-dasharray="null" stroke-linecap="null" stroke-linejoin="null" stroke-width="5"/>
 </g>
</svg>